<?xml version="1.0" encoding="UTF-8" standalone="no"?>
<!-- Created with Inkscape (http://www.inkscape.org/) -->

<svg
   xmlns:dc="http://purl.org/dc/elements/1.1/"
   xmlns:cc="http://creativecommons.org/ns#"
   xmlns:rdf="http://www.w3.org/1999/02/22-rdf-syntax-ns#"
   xmlns:svg="http://www.w3.org/2000/svg"
   xmlns="http://www.w3.org/2000/svg"
   xmlns:sodipodi="http://sodipodi.sourceforge.net/DTD/sodipodi-0.dtd"
   xmlns:inkscape="http://www.inkscape.org/namespaces/inkscape"
   width="638.95715"
   height="568.0332"
   id="svg2"
   version="1.1"
   inkscape:version="0.47 r22583"
   sodipodi:docname="เอกสารใหม่ 1">
  <defs
     id="defs4">
    <inkscape:perspective
       sodipodi:type="inkscape:persp3d"
       inkscape:vp_x="0 : 526.18109 : 1"
       inkscape:vp_y="0 : 1000 : 0"
       inkscape:vp_z="744.09448 : 526.18109 : 1"
       inkscape:persp3d-origin="372.04724 : 350.78739 : 1"
       id="perspective10" />
    <inkscape:perspective
       id="perspective2824"
       inkscape:persp3d-origin="0.5 : 0.33333333 : 1"
       inkscape:vp_z="1 : 0.5 : 1"
       inkscape:vp_y="0 : 1000 : 0"
       inkscape:vp_x="0 : 0.5 : 1"
       sodipodi:type="inkscape:persp3d" />
    <inkscape:perspective
       id="perspective3612"
       inkscape:persp3d-origin="0.5 : 0.33333333 : 1"
       inkscape:vp_z="1 : 0.5 : 1"
       inkscape:vp_y="0 : 1000 : 0"
       inkscape:vp_x="0 : 0.5 : 1"
       sodipodi:type="inkscape:persp3d" />
  </defs>
  <sodipodi:namedview
     id="base"
     pagecolor="#ffffff"
     bordercolor="#666666"
     borderopacity="1.0"
     inkscape:pageopacity="0.0"
     inkscape:pageshadow="2"
     inkscape:zoom="0.75171662"
     inkscape:cx="319.47858"
     inkscape:cy="284.01658"
     inkscape:document-units="px"
     inkscape:current-layer="layer1"
     showgrid="false"
     inkscape:window-width="1024"
     inkscape:window-height="693"
     inkscape:window-x="-9"
     inkscape:window-y="-9"
     inkscape:window-maximized="1" />
  <metadata
     id="metadata7">
    <rdf:RDF>
      <cc:Work
         rdf:about="">
        <dc:format>image/svg+xml</dc:format>
        <dc:type
           rdf:resource="http://purl.org/dc/dcmitype/StillImage" />
        <dc:title></dc:title>
      </cc:Work>
    </rdf:RDF>
  </metadata>
  <g
     inkscape:label="Layer 1"
     inkscape:groupmode="layer"
     id="layer1"
     transform="translate(-51.401877,-93.983525)">
    <g
       id="g3634">
      <path
         id="path2830"
         d="m 54.220066,658.03443 18.484113,1.23228 c 0,0 -1.232274,-8.62592 7.393645,-19.71639 8.62592,-11.09047 103.511036,-101.04649 123.227426,-117.06605 19.71638,-16.01957 82.56237,-69.00736 88.72374,-69.00736 6.16137,0 29.57458,13.55502 34.50368,25.87776 4.92909,12.32274 20.94866,39.43278 28.34231,43.1296 7.39364,3.69682 50.52324,24.64548 61.61371,24.64548 11.09046,0 4.92909,-20.94866 4.92909,-20.94866 0,0 34.50368,14.78729 40.66505,13.55502 6.16137,-1.23228 1.23228,-8.62592 7.39365,-7.39365 6.16137,1.23228 17.25184,11.09047 30.80685,4.9291 13.55502,-6.16137 -2.46455,-14.78729 14.78729,-19.71639 17.25184,-4.9291 14.78729,2.46455 23.41321,-3.69682 8.62592,-6.16137 -8.62592,-4.9291 9.8582,-6.16137 18.48411,-1.23228 18.48411,-1.23228 19.71639,-7.39365 1.23227,-6.16137 -12.32275,-4.92909 8.62591,-6.16137 20.94867,-1.23227 22.18094,2.46455 32.03913,-1.23227 9.8582,-3.69683 -7.39364,-8.62592 9.8582,-6.16137 17.25184,2.46454 8.62592,11.09046 25.87776,3.69682 17.25184,-7.39365 34.50367,-17.25184 38.2005,-20.94866 3.69682,-3.69683 4.92909,-7.39365 4.92909,-7.39365 0,0 -27.11003,3.69682 -36.96822,-2.46455 -9.8582,-6.16137 -18.48412,-12.32274 -18.48412,-12.32274 0,0 -7.39364,2.46455 -12.32274,-2.46455 -4.92909,-4.92909 -9.85819,-12.32274 -9.85819,-12.32274 l -14.78729,-2.46455 -11.09047,-11.09047 c 0,0 -13.55502,-7.39364 -19.71639,-9.85819 -6.16137,-2.46455 6.16137,-8.62592 0,-12.32274 -6.16137,-3.69682 -18.48411,-7.39365 -23.41321,-11.09047 -4.92909,-3.69682 -4.92909,-4.9291 -4.92909,-4.9291 l 23.41321,-36.96822 -8.62592,0 c 0,0 18.48411,-2.46455 27.11003,-20.94867 8.62592,-18.48411 8.62592,-32.03912 8.62592,-32.03912 l -13.55502,-6.16138 12.32274,-29.57458 -6.7775,-2.46455 c 0,0 9.24205,-12.32274 8.00978,-17.25184 -1.23228,-4.92909 -3.69682,-8.62591 -3.69682,-8.62591 0,0 17.25184,-27.11004 17.25184,-29.57459 0,-2.46454 -4.9291,-6.16137 -1.84842,-11.09046 3.08069,-4.9291 0.61614,-0.61614 9.24206,-6.77751 8.62592,-6.16137 2.46455,-13.55502 7.39365,-21.5648 4.92909,-8.00978 3.69682,-8.00978 7.39364,-16.6357 3.69682,-8.62592 8.62592,-15.40343 8.62592,-24.02935 0,-8.62592 0,-14.78729 0,-14.78729 0,0 -50.52324,57.91689 -54.22007,57.91689 -3.69682,0 -4.31295,2.46455 -7.39364,-1.23228 -3.08069,-3.69682 -3.69682,-3.69682 -3.69682,-3.69682 0,0 -22.18094,20.94866 -27.72617,20.94866 -5.54524,0 -4.31296,-6.77751 -9.24206,-8.62592 -4.9291,-1.84841 -3.08069,-1.84841 -15.40343,4.9291 -12.32274,6.77751 3.08069,11.7066 -6.16137,9.85819 -9.24206,-1.84841 -4.31296,-7.39364 -11.09047,-4.31296 -6.7775,3.08069 -9.24205,1.84841 -16.6357,8.00979 -7.39364,6.16137 -7.39364,9.24205 -7.39364,6.16137 0,-3.08069 -7.39365,-26.4939 -7.39365,-26.4939 0,0 -30.19072,8.62592 -37.58436,16.01957 -7.39365,7.39364 -12.32275,12.93888 -12.32275,14.78729 0,1.84841 -2.46454,4.92909 -2.46454,4.92909 0,0 -4.31296,-4.92909 -7.39365,-4.92909 -3.08068,0 0,-6.77751 -13.55502,3.08068 -13.55501,9.8582 -30.19071,17.25184 -30.19071,20.33253 0,3.08068 2.46454,5.54523 0,3.08068 -2.46455,-2.46455 -20.94867,-38.81664 -20.94867,-38.81664 l -3.69682,1.84842 c 0,0 -4.92909,-28.95845 -8.62592,-35.73596 -3.69682,-6.7775 -6.77751,-1.84841 -6.77751,-12.32274 0,-10.47433 0,-8.00978 0,-18.48411 0,-10.47433 -3.69682,-22.797075 -3.69682,-22.797075 0,0 -28.95844,43.745735 -35.73595,54.836205 -6.77751,11.09047 -5.54523,17.25184 -5.54523,17.25184 l -5.54524,-1.23228 c 0,0 -6.77751,-1.84841 -11.09047,10.47433 -4.31296,12.32275 -10.47433,35.11982 -11.7066,38.81664 -1.23228,3.69682 -1.23228,5.54524 -3.69682,5.54524 -2.46455,0 -2.46455,-4.31296 -4.9291,-3.08069 -2.46455,1.23227 -8.00978,-0.61614 -8.62592,8.00978 -0.61614,8.62592 6.77751,67.15895 4.31296,72.70418 -2.46455,5.54524 -3.69682,5.54524 -3.69682,5.54524 0,0 -11.70661,-3.69683 -12.32275,-0.61614 -0.61613,3.08068 -8.00978,9.24205 -3.08068,15.40343 4.9291,6.16137 11.09047,14.78729 11.09047,14.78729 l -8.62592,0 c 0,0 26.49389,31.42299 21.5648,34.50367 -4.9291,3.08069 -5.54524,-0.61613 -7.39365,5.54524 -1.84841,6.16137 3.69682,14.17115 9.85819,19.71639 6.16138,5.54523 44.97801,44.97801 44.97801,44.97801 l -0.61613,6.7775 c 0,0 -140.47926,104.12718 -140.47926,106.59172 0,2.46455 -83.794652,79.48169 -86.2592,86.87534 -2.464549,7.39364 -6.161371,19.10025 -5.545234,17.86797 z"
         style="fill:none;stroke:#000000;stroke-width:5.5;stroke-linecap:butt;stroke-linejoin:miter;stroke-miterlimit:4;stroke-opacity:1;stroke-dasharray:none" />
      <path
         transform="translate(51.401877,93.983525)"
         id="path3618"
         d="m 630.55676,371.1505 c 0,0 -13.30288,3.99087 -18.62404,5.32115 -5.32115,1.33029 -10.6423,-2.66057 -26.60577,-5.32115 -15.96346,-2.66058 -35.91779,0 -57.2024,0 -21.28462,0 -46.5601,-13.30288 -71.83558,-13.30288 -25.27549,0 -74.49616,1.33028 -102.43222,0 -27.93606,-1.33029 -107.75337,-9.31202 -107.75337,-9.31202 0,0 137.01972,-122.38655 158.30433,-139.6803 21.28462,-17.29375 45.22981,-35.91779 70.5053,-65.18414 25.27548,-29.26635 19.95432,-25.27548 41.23894,-46.560097 21.28462,-21.284617 30.59664,-29.266348 39.90866,-41.238945 9.31202,-11.972596 18.62404,-37.248079 18.62404,-37.248079"
         style="fill:none;stroke:#000000;stroke-width:3;stroke-linecap:butt;stroke-linejoin:miter;stroke-miterlimit:4;stroke-opacity:1;stroke-dasharray:none" />
      <path
         transform="translate(51.401877,93.983525)"
         id="path3620"
         d="m 246.10338,347.20531 c 0,0 -7.98173,-53.21154 -11.9726,-81.1476 -3.99086,-27.93606 -15.96346,-18.62404 -3.99086,-51.88126 11.97259,-33.25721 5.32115,-73.16587 9.31202,-87.79904 3.99086,-14.63317 25.27548,-115.735102 25.27548,-115.735102"
         style="fill:none;stroke:#000000;stroke-width:3;stroke-linecap:butt;stroke-linejoin:miter;stroke-miterlimit:4;stroke-opacity:1;stroke-dasharray:none" />
      <path
         transform="translate(51.401877,93.983525)"
         id="path3622"
         d="m 400.41685,214.17645 c 0,0 34.5875,9.31202 61.19327,-1.33028 26.60577,-10.64231 45.22981,-3.99087 54.54183,-7.98174 9.31202,-3.99086 15.96346,-7.98173 15.96346,-7.98173"
         style="fill:none;stroke:#000000;stroke-width:1px;stroke-linecap:butt;stroke-linejoin:miter;stroke-opacity:1" />
      <path
         transform="translate(51.401877,93.983525)"
         id="path3624"
         d="m 364.49906,239.45194 c 0,0 -27.93606,-22.61491 -14.63318,-53.21155 13.30289,-30.59663 21.28462,-27.93605 30.59664,-50.55096 9.31202,-22.6149 30.59664,-59.862984 30.59664,-59.862984"
         style="fill:none;stroke:#000000;stroke-width:1px;stroke-linecap:butt;stroke-linejoin:miter;stroke-opacity:1" />
      <path
         transform="translate(51.401877,93.983525)"
         id="path3626"
         d="m 280.69088,311.28752 c 0,0 -14.63317,-17.29375 -2.66058,-42.56924 11.9726,-25.27548 15.96347,-25.27548 11.9726,-38.57836 -3.99087,-13.30289 -6.65144,-63.85385 -6.65144,-63.85385"
         style="fill:none;stroke:#000000;stroke-width:1px;stroke-linecap:butt;stroke-linejoin:miter;stroke-opacity:1" />
      <path
         transform="translate(51.401877,93.983525)"
         id="path3628"
         d="m 305.96636,295.32405 c 0,0 55.87212,15.96347 71.83558,9.31202 15.96347,-6.65144 23.9452,-18.62404 45.22981,-25.27548 21.28462,-6.65144 18.62404,0 29.26635,1.33029 10.64231,1.33029 15.96346,2.66058 15.96346,2.66058"
         style="fill:none;stroke:#000000;stroke-width:1px;stroke-linecap:butt;stroke-linejoin:miter;stroke-opacity:1" />
    </g>
  </g>
</svg>
